<svg width="138" height="150" viewBox="0 0 138 150" fill="none" xmlns="http://www.w3.org/2000/svg">
<circle cx="71.1018" cy="2.08346" r="2.08346" fill="#DEDEDE"/>
<circle cx="71.1018" cy="83.1018" r="2.08346" fill="#DEDEDE"/>
<circle cx="71.1018" cy="18.2871" r="2.08346" fill="#DEDEDE"/>
<circle cx="71.1018" cy="99.3055" r="2.08346" fill="#DEDEDE"/>
<circle cx="71.1018" cy="34.4908" r="2.08346" fill="#DEDEDE"/>
<circle cx="71.1018" cy="115.509" r="2.08346" fill="#DEDEDE"/>
<circle cx="71.1018" cy="50.6945" r="2.08346" fill="#DEDEDE"/>
<circle cx="71.1018" cy="131.713" r="2.08346" fill="#DEDEDE"/>
<circle cx="71.1018" cy="66.8981" r="2.08346" fill="#DEDEDE"/>
<circle cx="71.1018" cy="147.917" r="2.08346" fill="#DEDEDE"/>
<circle cx="6.28713" cy="2.08346" r="2.08346" fill="#DEDEDE"/>
<circle cx="6.28713" cy="83.1018" r="2.08346" fill="#DEDEDE"/>
<circle cx="87.3054" cy="2.08346" r="2.08346" fill="#DEDEDE"/>
<circle cx="87.3054" cy="83.1018" r="2.08346" fill="#DEDEDE"/>
<circle cx="6.28713" cy="18.2871" r="2.08346" fill="#DEDEDE"/>
<circle cx="6.28713" cy="99.3055" r="2.08346" fill="#DEDEDE"/>
<circle cx="87.3054" cy="18.2871" r="2.08346" fill="#DEDEDE"/>
<circle cx="87.3054" cy="99.3055" r="2.08346" fill="#DEDEDE"/>
<circle cx="6.28713" cy="34.4908" r="2.08346" fill="#DEDEDE"/>
<circle cx="6.28713" cy="115.509" r="2.08346" fill="#DEDEDE"/>
<circle cx="87.3054" cy="34.4908" r="2.08346" fill="#DEDEDE"/>
<circle cx="87.3054" cy="115.509" r="2.08346" fill="#DEDEDE"/>
<circle cx="6.28713" cy="50.6945" r="2.08346" fill="#DEDEDE"/>
<circle cx="6.28713" cy="131.713" r="2.08346" fill="#DEDEDE"/>
<circle cx="87.3054" cy="50.6945" r="2.08346" fill="#DEDEDE"/>
<circle cx="87.3054" cy="131.713" r="2.08346" fill="#DEDEDE"/>
<circle cx="6.28713" cy="66.8981" r="2.08346" fill="#DEDEDE"/>
<circle cx="6.28713" cy="147.917" r="2.08346" fill="#DEDEDE"/>
<circle cx="87.3054" cy="66.8981" r="2.08346" fill="#DEDEDE"/>
<circle cx="87.3054" cy="147.917" r="2.08346" fill="#DEDEDE"/>
<circle cx="22.4908" cy="2.08346" r="2.08346" fill="#DEDEDE"/>
<circle cx="22.4908" cy="83.1018" r="2.08346" fill="#DEDEDE"/>
<circle cx="103.509" cy="2.08346" r="2.08346" fill="#DEDEDE"/>
<circle cx="103.509" cy="83.1018" r="2.08346" fill="#DEDEDE"/>
<circle cx="22.4908" cy="18.2871" r="2.08346" fill="#DEDEDE"/>
<circle cx="22.4908" cy="99.3055" r="2.08346" fill="#DEDEDE"/>
<circle cx="103.509" cy="18.2871" r="2.08346" fill="#DEDEDE"/>
<circle cx="103.509" cy="99.3055" r="2.08346" fill="#DEDEDE"/>
<circle cx="22.4908" cy="34.4908" r="2.08346" fill="#DEDEDE"/>
<circle cx="22.4908" cy="115.509" r="2.08346" fill="#DEDEDE"/>
<circle cx="103.509" cy="34.4908" r="2.08346" fill="#DEDEDE"/>
<circle cx="103.509" cy="115.509" r="2.08346" fill="#DEDEDE"/>
<circle cx="22.4908" cy="50.6945" r="2.08346" fill="#DEDEDE"/>
<circle cx="22.4908" cy="131.713" r="2.08346" fill="#DEDEDE"/>
<circle cx="103.509" cy="50.6945" r="2.08346" fill="#DEDEDE"/>
<circle cx="103.509" cy="131.713" r="2.08346" fill="#DEDEDE"/>
<circle cx="22.4908" cy="66.8981" r="2.08346" fill="#DEDEDE"/>
<circle cx="22.4908" cy="147.917" r="2.08346" fill="#DEDEDE"/>
<circle cx="103.509" cy="66.8981" r="2.08346" fill="#DEDEDE"/>
<circle cx="103.509" cy="147.917" r="2.08346" fill="#DEDEDE"/>
<circle cx="38.6945" cy="2.08346" r="2.08346" fill="#DEDEDE"/>
<circle cx="38.6945" cy="83.1018" r="2.08346" fill="#DEDEDE"/>
<circle cx="119.713" cy="2.08346" r="2.08346" fill="#DEDEDE"/>
<circle cx="119.713" cy="83.1018" r="2.08346" fill="#DEDEDE"/>
<circle cx="38.6945" cy="18.2871" r="2.08346" fill="#DEDEDE"/>
<circle cx="38.6945" cy="99.3055" r="2.08346" fill="#DEDEDE"/>
<circle cx="119.713" cy="18.2871" r="2.08346" fill="#DEDEDE"/>
<circle cx="119.713" cy="99.3055" r="2.08346" fill="#DEDEDE"/>
<circle cx="38.6945" cy="34.4908" r="2.08346" fill="#DEDEDE"/>
<circle cx="38.6945" cy="115.509" r="2.08346" fill="#DEDEDE"/>
<circle cx="119.713" cy="34.4908" r="2.08346" fill="#DEDEDE"/>
<circle cx="119.713" cy="115.509" r="2.08346" fill="#DEDEDE"/>
<circle cx="38.6945" cy="50.6945" r="2.08346" fill="#DEDEDE"/>
<circle cx="38.6945" cy="131.713" r="2.08346" fill="#DEDEDE"/>
<circle cx="119.713" cy="50.6945" r="2.08346" fill="#DEDEDE"/>
<circle cx="119.713" cy="131.713" r="2.08346" fill="#DEDEDE"/>
<circle cx="38.6945" cy="66.8981" r="2.08346" fill="#DEDEDE"/>
<circle cx="38.6945" cy="147.917" r="2.08346" fill="#DEDEDE"/>
<circle cx="119.713" cy="66.8981" r="2.08346" fill="#DEDEDE"/>
<circle cx="119.713" cy="147.917" r="2.08346" fill="#DEDEDE"/>
<circle cx="54.8982" cy="2.08346" r="2.08346" fill="#DEDEDE"/>
<circle cx="54.8982" cy="83.1018" r="2.08346" fill="#DEDEDE"/>
<circle cx="135.916" cy="2.08346" r="2.08346" fill="#DEDEDE"/>
<circle cx="135.916" cy="83.1018" r="2.08346" fill="#DEDEDE"/>
<circle cx="54.8982" cy="18.2871" r="2.08346" fill="#DEDEDE"/>
<circle cx="54.8982" cy="99.3055" r="2.08346" fill="#DEDEDE"/>
<circle cx="135.916" cy="18.2871" r="2.08346" fill="#DEDEDE"/>
<circle cx="135.916" cy="99.3055" r="2.08346" fill="#DEDEDE"/>
<circle cx="54.8982" cy="34.4908" r="2.08346" fill="#DEDEDE"/>
<circle cx="54.8982" cy="115.509" r="2.08346" fill="#DEDEDE"/>
<circle cx="135.916" cy="34.4908" r="2.08346" fill="#DEDEDE"/>
<circle cx="135.916" cy="115.509" r="2.08346" fill="#DEDEDE"/>
<circle cx="54.8982" cy="50.6945" r="2.08346" fill="#DEDEDE"/>
<circle cx="54.8982" cy="131.713" r="2.08346" fill="#DEDEDE"/>
<circle cx="135.916" cy="50.6945" r="2.08346" fill="#DEDEDE"/>
<circle cx="135.916" cy="131.713" r="2.08346" fill="#DEDEDE"/>
<circle cx="54.8982" cy="66.8981" r="2.08346" fill="#DEDEDE"/>
<circle cx="54.8982" cy="147.917" r="2.08346" fill="#DEDEDE"/>
<circle cx="135.916" cy="66.8981" r="2.08346" fill="#DEDEDE"/>
<circle cx="135.916" cy="147.917" r="2.08346" fill="#DEDEDE"/>
</svg>
